<?xml version="1.0" encoding="UTF-8"?>
<svg id="Layer_2" data-name="Layer 2" xmlns="http://www.w3.org/2000/svg" viewBox="0 0 1105.79 1230.33">
  <defs>
    <style>
      .cls-1 {
        fill: #fff;
      }
    </style>
  </defs>
  <g id="mCube">
    <path id="mCube-2" data-name="mCube" class="cls-1" d="M1030.6,252.54L628.08,20.15c-46.53-26.86-103.85-26.86-150.38,0L75.19,252.54C28.66,279.4,0,329.05,0,382.77v464.79c0,53.73,28.66,103.37,75.19,130.23l402.52,232.39c46.53,26.86,103.85,26.86,150.38,0l402.52-232.39c46.53-26.86,75.19-76.51,75.19-130.23v-464.79c0-53.73-28.66-103.37-75.19-130.23ZM924.56,811.96c0,41.18-33.37,74.55-74.55,74.55s-74.55-33.37-74.55-74.55l.15-34.55.94-211.04c0-41.18-33.37-74.55-74.55-74.55s-74.55,33.37-74.55,74.55v245.58c0,41.18-33.37,74.55-74.55,74.55s-74.55-33.37-74.55-74.55v-245.58c0-41.18-33.37-74.55-74.55-74.55s-74.55,33.37-74.55,74.55l.94,211.04.15,34.55c0,41.18-33.37,74.55-74.55,74.55s-74.55-33.37-74.55-74.55v-245.03c0-123.22,99.89-223.11,223.11-223.11,57.05,0,109.1,21.41,148.56,56.64,39.46-35.23,91.5-56.64,148.56-56.64,123.22,0,223.11,99.89,223.11,223.11v245.03Z"/>
  </g>
</svg>